<svg id="svg" version="1.1" xmlns="http://www.w3.org/2000/svg" xmlns:xlink="http://www.w3.org/1999/xlink" width="400" height="400" viewBox="0, 0, 400,400"><g id="svgg"><path id="path0" d="M40.700 40.446 L 39.600 41.267 39.600 200.011 L 39.600 358.755 40.489 359.377 C 41.988 360.427,358.388 360.318,359.340 359.267 C 359.955 358.587,360.003 347.101,360.005 199.996 L 360.006 41.458 359.133 40.529 L 358.261 39.600 200.030 39.613 L 41.800 39.625 40.700 40.446 M186.994 46.387 C 188.311 46.608,189.841 47.122,190.394 47.530 C 190.947 47.938,192.637 48.682,194.149 49.185 C 195.661 49.687,197.280 50.481,197.748 50.949 C 198.216 51.417,199.409 52.186,200.399 52.658 C 201.390 53.130,202.716 54.082,203.347 54.773 C 203.978 55.463,205.001 56.290,205.619 56.610 C 206.237 56.930,206.846 57.514,206.971 57.909 C 207.096 58.304,207.743 58.948,208.409 59.341 C 209.074 59.734,209.921 60.538,210.291 61.128 C 210.661 61.718,211.549 62.868,212.266 63.683 C 212.982 64.499,213.854 66.149,214.203 67.350 C 214.552 68.551,215.118 69.766,215.460 70.050 C 216.303 70.749,216.743 72.011,217.456 75.769 C 217.787 77.517,218.406 79.628,218.831 80.461 C 219.273 81.327,219.761 83.480,219.970 85.488 C 220.427 89.861,220.867 91.025,222.647 92.573 C 224.646 94.310,225.128 97.860,224.433 105.737 C 223.439 117.015,222.401 120.024,218.647 122.516 C 216.149 124.175,215.378 125.966,214.224 132.800 C 213.811 135.245,213.295 136.956,212.778 137.600 C 212.335 138.150,211.505 139.590,210.932 140.800 C 210.360 142.010,209.490 143.450,208.998 144.000 C 208.507 144.550,207.722 146.158,207.254 147.572 C 206.786 148.987,206.036 150.536,205.587 151.014 C 204.884 151.763,204.715 152.715,204.382 157.842 C 204.168 161.119,203.974 164.070,203.951 164.400 C 203.852 165.781,204.031 166.400,204.528 166.400 C 205.174 166.400,209.196 170.177,210.196 171.723 C 210.595 172.341,211.598 173.191,212.424 173.612 C 213.250 174.034,213.989 174.566,214.065 174.796 C 214.142 175.025,215.733 175.574,217.602 176.016 C 219.471 176.458,221.453 177.150,222.008 177.554 C 223.313 178.504,223.786 178.643,228.833 179.552 C 231.160 179.972,233.804 180.692,234.707 181.153 C 235.610 181.613,238.116 182.272,240.275 182.617 C 242.674 183.000,245.133 183.688,246.600 184.388 C 247.920 185.018,250.080 185.748,251.400 186.011 C 254.061 186.542,255.003 186.940,256.226 188.050 C 257.000 188.753,258.765 189.188,263.317 189.798 C 264.585 189.967,265.668 190.433,266.517 191.173 C 267.223 191.789,268.212 192.421,268.715 192.578 C 269.218 192.735,270.049 193.527,270.561 194.338 C 271.072 195.148,271.798 196.066,272.172 196.377 C 273.112 197.157,273.806 198.632,274.378 201.067 C 274.645 202.204,275.201 203.439,275.613 203.812 C 276.374 204.500,276.770 206.113,277.560 211.738 C 277.834 213.688,278.295 215.249,278.778 215.863 C 279.555 216.851,279.987 217.970,280.777 221.041 C 281.009 221.944,281.643 223.161,282.186 223.747 C 283.488 225.152,283.873 226.792,284.328 232.884 C 284.694 237.791,284.750 238.012,285.922 239.183 C 286.934 240.195,287.183 240.835,287.417 243.022 C 287.652 245.217,287.862 245.753,288.704 246.305 C 290.140 247.246,290.800 249.157,290.800 252.371 C 290.800 254.461,290.963 255.299,291.443 255.684 C 291.797 255.968,292.472 256.636,292.943 257.169 C 293.414 257.703,294.367 258.709,295.061 259.406 C 295.755 260.103,296.815 261.646,297.417 262.836 C 298.020 264.026,298.833 265.225,299.224 265.500 C 299.615 265.775,300.317 267.149,300.784 268.553 C 301.252 269.958,301.979 271.419,302.400 271.800 C 302.821 272.181,303.540 273.616,303.997 274.990 C 304.454 276.363,305.251 277.885,305.770 278.371 C 306.288 278.858,306.940 280.070,307.218 281.065 C 307.497 282.060,308.312 283.577,309.030 284.436 C 309.749 285.296,310.464 286.585,310.620 287.300 C 310.969 288.900,314.267 292.258,315.859 292.634 C 319.041 293.384,320.430 295.272,320.989 299.600 C 321.154 300.875,321.681 302.402,322.244 303.232 C 323.637 305.287,324.331 309.269,324.589 316.686 C 324.713 320.253,324.915 323.433,325.037 323.752 C 325.358 324.589,323.274 330.609,322.385 331.413 C 321.972 331.787,321.244 333.287,320.767 334.746 C 320.290 336.206,319.544 337.791,319.109 338.269 C 318.674 338.747,317.908 340.024,317.406 341.107 C 316.824 342.363,315.984 343.392,315.087 343.946 C 314.313 344.425,313.581 345.073,313.460 345.387 C 313.146 346.207,311.348 347.037,308.707 347.581 C 307.446 347.841,306.309 348.224,306.180 348.433 C 304.762 350.727,297.256 351.720,283.303 351.459 C 277.196 351.344,271.575 351.247,270.811 351.244 C 269.360 351.237,268.000 352.126,268.000 353.082 C 268.000 354.841,269.948 354.801,184.513 354.777 C 140.121 354.764,103.099 354.629,102.243 354.477 C 99.237 353.942,99.092 353.369,99.639 344.175 C 100.170 335.249,99.776 332.125,97.744 329.144 C 96.384 327.147,95.882 323.307,96.183 317.200 C 96.457 311.636,95.911 308.760,94.189 306.714 C 93.502 305.898,93.205 304.922,93.031 302.908 C 92.552 297.391,91.933 293.933,91.200 292.684 C 90.786 291.978,89.999 289.985,89.452 288.256 C 88.905 286.527,88.071 284.701,87.599 284.198 C 87.123 283.692,86.384 281.894,85.941 280.165 C 85.501 278.450,84.742 276.571,84.254 275.991 C 83.716 275.352,83.086 273.638,82.660 271.651 C 82.272 269.845,81.524 267.735,80.999 266.961 C 80.474 266.187,79.739 264.180,79.365 262.500 C 78.991 260.821,78.259 258.514,77.737 257.374 C 76.688 255.084,76.244 251.458,75.655 240.400 C 75.353 234.722,75.171 233.520,74.352 231.800 C 72.915 228.781,72.866 206.480,74.290 203.600 C 74.780 202.610,75.458 200.450,75.798 198.800 C 76.138 197.150,76.777 195.350,77.219 194.800 C 77.661 194.250,78.551 193.010,79.197 192.044 C 79.843 191.079,80.906 189.963,81.560 189.566 C 82.214 189.168,82.946 188.475,83.186 188.026 C 83.426 187.577,84.563 186.608,85.711 185.871 C 86.860 185.135,88.039 184.242,88.331 183.888 C 88.623 183.534,89.793 182.938,90.931 182.563 C 92.069 182.189,93.494 181.471,94.098 180.969 C 94.747 180.429,96.464 179.776,98.298 179.372 C 100.004 178.996,102.210 178.270,103.200 177.759 C 104.190 177.248,106.530 176.530,108.400 176.164 C 110.576 175.738,112.420 175.096,113.521 174.381 C 114.467 173.766,115.997 173.139,116.921 172.987 C 119.042 172.638,121.156 171.774,122.195 170.831 C 122.638 170.429,123.961 169.788,125.137 169.406 C 126.312 169.024,127.842 168.217,128.537 167.613 C 129.231 167.009,130.431 166.309,131.203 166.058 C 132.733 165.561,135.642 163.212,138.182 160.424 C 139.072 159.448,140.302 158.122,140.915 157.478 C 141.529 156.834,142.365 155.653,142.774 154.854 C 143.771 152.903,147.460 149.600,148.641 149.600 C 149.744 149.600,150.104 150.227,150.764 153.301 C 151.088 154.809,151.522 155.744,152.025 156.013 C 152.447 156.239,153.087 157.003,153.448 157.712 C 153.810 158.420,154.847 159.842,155.753 160.872 C 160.176 165.899,161.200 167.150,161.200 167.532 C 161.200 167.759,161.760 168.345,162.445 168.832 C 163.130 169.320,163.937 170.309,164.238 171.030 C 164.540 171.752,165.152 172.458,165.600 172.600 C 166.047 172.742,166.768 173.553,167.201 174.403 C 167.635 175.252,168.321 176.184,168.726 176.474 C 169.131 176.763,169.972 177.900,170.596 179.000 C 171.219 180.100,172.220 181.540,172.821 182.200 C 173.421 182.860,174.034 183.805,174.183 184.300 C 175.003 187.022,177.785 186.778,180.600 183.736 C 181.920 182.309,184.385 179.733,186.078 178.010 C 191.035 172.966,189.747 170.852,181.718 170.852 C 176.211 170.852,172.400 170.016,172.400 168.808 C 172.400 168.604,171.611 168.088,170.647 167.662 C 169.682 167.235,168.197 166.219,167.347 165.404 C 166.496 164.589,165.366 163.630,164.835 163.273 C 164.304 162.915,163.382 161.854,162.786 160.914 C 162.190 159.974,160.374 157.988,158.751 156.502 C 155.987 153.971,154.573 152.521,151.057 148.609 C 150.102 147.546,149.485 146.351,149.197 145.009 C 148.961 143.904,148.316 142.347,147.763 141.549 C 147.042 140.506,146.537 138.836,145.966 135.605 C 144.754 128.739,143.366 126.888,140.000 127.645 C 137.734 128.154,136.678 127.442,135.807 124.820 C 135.439 123.714,134.971 122.706,134.767 122.579 C 134.006 122.109,133.134 119.856,132.567 116.895 C 132.246 115.218,131.724 113.558,131.407 113.208 C 128.547 110.048,128.509 100.853,131.348 99.177 C 133.162 98.107,133.548 96.438,133.301 90.734 C 133.110 86.325,133.865 79.370,134.780 77.101 C 134.979 76.605,135.453 74.510,135.832 72.445 C 136.352 69.608,136.779 68.386,137.578 67.445 C 138.160 66.760,138.961 65.456,139.358 64.546 C 139.755 63.637,140.492 62.672,140.996 62.402 C 141.499 62.133,142.108 61.481,142.348 60.955 C 142.587 60.429,143.301 59.683,143.934 59.299 C 144.566 58.914,145.576 58.014,146.178 57.300 C 146.779 56.585,147.509 56.000,147.800 56.000 C 148.091 56.000,148.769 55.477,149.307 54.837 C 149.845 54.198,151.076 53.273,152.043 52.783 C 153.009 52.292,154.293 51.479,154.895 50.975 C 155.498 50.471,156.938 49.784,158.095 49.447 C 159.253 49.110,160.810 48.384,161.555 47.834 C 162.853 46.875,165.171 46.222,168.600 45.849 C 171.206 45.566,184.402 45.951,186.994 46.387 M200.990 168.563 C 200.676 169.313,199.861 170.364,199.177 170.899 C 197.486 172.222,197.998 174.438,200.372 176.071 C 202.681 177.659,203.168 176.939,203.132 171.991 C 203.097 167.167,202.183 165.706,200.990 168.563 M221.475 295.888 C 221.026 296.601,220.940 302.397,221.357 303.800 L 221.715 305.000 222.018 304.000 C 222.667 301.855,222.192 294.752,221.475 295.888 " stroke="none" fill="#f6f6f6" fill-rule="evenodd"></path><path id="path1" d="M0.000 200.000 L 0.000 400.000 200.000 400.000 L 400.000 400.000 400.000 200.000 L 400.000 0.000 200.000 0.000 L 0.000 0.000 0.000 200.000 M360.761 37.180 C 361.692 37.655,362.546 38.500,362.945 39.340 C 363.967 41.495,363.953 358.535,362.930 360.690 C 361.412 363.890,378.785 363.581,199.800 363.591 C 22.333 363.600,38.788 363.866,37.111 360.958 C 35.997 359.027,36.001 40.966,37.115 39.034 C 37.507 38.356,38.451 37.485,39.214 37.101 C 41.508 35.943,358.489 36.021,360.761 37.180 M169.200 47.997 C 168.210 48.157,166.500 48.737,165.400 49.287 C 164.300 49.837,162.444 50.513,161.277 50.789 C 160.109 51.065,158.647 51.717,158.028 52.238 C 157.410 52.758,156.039 53.554,154.984 54.007 C 153.928 54.460,152.379 55.449,151.542 56.205 C 150.705 56.961,149.588 57.688,149.060 57.821 C 148.532 57.953,147.899 58.503,147.654 59.042 C 147.408 59.582,146.604 60.379,145.867 60.814 C 145.129 61.249,144.326 62.045,144.081 62.583 C 143.835 63.121,143.125 63.825,142.501 64.148 C 141.632 64.597,141.245 65.215,140.837 66.807 C 140.545 67.947,139.796 69.460,139.173 70.170 C 137.574 71.991,137.228 74.670,136.952 87.400 C 136.689 99.520,136.740 99.305,133.766 100.667 C 131.022 101.923,130.537 105.415,132.609 109.000 C 133.118 109.880,133.831 112.220,134.195 114.200 C 134.687 116.882,135.105 118.062,135.834 118.828 C 136.471 119.498,137.009 120.799,137.379 122.568 C 138.087 125.950,137.698 125.724,141.632 125.041 C 143.471 124.722,145.117 124.549,145.291 124.656 C 146.106 125.160,146.904 127.613,147.454 131.307 C 147.857 134.013,148.377 135.901,149.022 137.001 C 149.552 137.906,150.277 140.076,150.633 141.823 C 151.146 144.339,151.522 145.224,152.440 146.077 C 153.078 146.670,153.600 147.349,153.600 147.586 C 153.600 148.083,159.053 153.600,159.544 153.600 C 159.724 153.600,160.073 154.041,160.318 154.581 C 160.564 155.120,161.310 155.843,161.976 156.188 C 162.642 156.532,163.456 157.334,163.785 157.971 C 164.670 159.683,171.444 166.000,172.394 166.000 C 172.742 166.000,174.011 166.635,175.213 167.412 C 177.381 168.812,177.437 168.824,181.600 168.774 C 189.271 168.683,191.189 169.856,191.198 174.646 C 191.200 176.015,189.877 178.000,188.961 178.000 C 188.642 178.000,188.196 178.495,187.971 179.100 C 187.746 179.705,186.966 180.740,186.237 181.400 C 185.509 182.060,183.508 184.175,181.792 186.100 C 180.075 188.025,178.375 189.600,178.014 189.600 C 176.336 189.600,173.273 187.565,172.666 186.048 C 172.332 185.213,171.596 184.228,171.031 183.857 C 170.466 183.487,169.754 182.603,169.449 181.892 C 169.144 181.181,168.243 179.880,167.446 179.000 C 166.650 178.120,165.813 176.842,165.588 176.159 C 165.362 175.476,164.729 174.714,164.183 174.465 C 163.636 174.216,162.972 173.514,162.709 172.906 C 162.445 172.298,161.593 171.134,160.815 170.319 C 160.037 169.505,158.680 168.017,157.800 167.011 C 156.920 166.006,155.551 164.512,154.758 163.692 C 153.965 162.871,153.118 161.821,152.875 161.358 C 152.633 160.896,151.800 159.758,151.025 158.830 C 150.250 157.902,149.414 156.391,149.167 155.471 C 148.921 154.552,148.644 153.677,148.553 153.528 C 148.190 152.931,145.071 155.486,144.316 156.999 C 143.877 157.879,142.927 159.230,142.206 160.000 C 139.718 162.656,138.567 163.803,137.533 164.655 C 136.963 165.126,136.429 165.713,136.347 165.960 C 136.264 166.207,135.129 166.843,133.823 167.374 C 132.518 167.905,131.169 168.702,130.825 169.146 C 130.481 169.590,129.120 170.350,127.800 170.835 C 126.480 171.320,124.998 172.113,124.507 172.597 C 124.015 173.082,122.395 173.801,120.907 174.197 C 119.418 174.593,117.882 175.246,117.493 175.649 C 116.799 176.368,114.028 177.297,111.141 177.778 C 110.338 177.912,109.258 178.350,108.741 178.752 C 107.530 179.694,105.720 180.243,102.041 180.788 C 98.827 181.263,98.625 181.337,97.324 182.507 C 96.842 182.940,95.255 183.625,93.795 184.030 C 92.092 184.502,90.877 185.103,90.400 185.709 C 89.992 186.228,88.925 186.983,88.029 187.387 C 87.133 187.791,86.400 188.247,86.400 188.401 C 86.400 188.555,85.396 189.472,84.168 190.440 C 82.651 191.637,81.565 192.927,80.777 194.471 C 80.139 195.720,79.265 196.989,78.835 197.291 C 76.034 199.252,76.367 242.214,79.249 250.847 C 79.882 252.744,80.407 254.904,80.415 255.647 C 80.445 258.432,81.453 262.309,82.456 263.502 C 83.158 264.337,83.656 265.736,84.143 268.243 C 84.522 270.199,85.066 271.980,85.351 272.200 C 86.197 272.853,86.762 274.183,87.420 277.073 C 87.761 278.573,88.538 280.520,89.147 281.400 C 89.755 282.280,90.479 283.785,90.755 284.744 C 91.032 285.703,91.776 287.203,92.410 288.077 C 93.054 288.967,93.652 290.400,93.767 291.333 C 94.544 297.595,94.965 300.253,95.239 300.613 C 95.412 300.840,96.106 303.000,96.781 305.413 C 97.457 307.826,98.347 310.261,98.761 310.825 C 99.554 311.906,99.564 311.468,98.569 319.200 C 98.421 320.351,98.584 321.865,99.022 323.400 C 99.399 324.720,100.122 327.397,100.629 329.348 C 101.197 331.535,101.905 333.273,102.475 333.881 C 103.740 335.227,103.748 340.847,102.490 345.007 C 101.159 349.411,100.948 351.810,101.856 352.202 C 102.865 352.638,232.010 352.909,250.759 352.515 L 265.717 352.200 266.251 350.369 C 267.077 347.531,268.012 346.889,269.602 348.066 C 272.265 350.035,299.635 349.618,301.822 347.575 C 302.274 347.152,303.894 346.519,305.422 346.168 C 310.609 344.976,314.472 342.190,315.915 338.600 C 316.440 337.295,317.264 335.861,317.747 335.414 C 318.241 334.956,318.867 333.590,319.179 332.288 C 319.491 330.987,320.141 329.568,320.665 329.045 C 323.118 326.591,323.457 309.783,321.103 307.293 C 319.940 306.063,319.393 304.243,319.004 300.304 C 318.764 297.878,318.620 297.539,317.568 296.918 C 316.925 296.538,316.298 295.910,316.175 295.522 C 316.048 295.122,315.261 294.632,314.353 294.387 C 312.282 293.830,309.771 291.544,309.175 289.674 C 308.916 288.863,308.202 287.660,307.588 287.000 C 306.974 286.340,306.190 284.840,305.847 283.667 C 305.473 282.388,304.819 281.216,304.215 280.741 C 303.585 280.245,302.964 279.095,302.559 277.674 C 302.203 276.423,301.488 274.947,300.971 274.394 C 300.000 273.356,298.800 270.461,298.800 269.159 C 298.800 268.752,298.349 268.123,297.798 267.762 C 297.246 267.401,296.451 266.327,296.031 265.376 C 295.610 264.426,294.723 263.052,294.060 262.324 C 289.184 256.972,288.409 255.556,288.914 252.915 C 289.176 251.547,288.689 250.280,287.161 248.351 C 286.291 247.252,285.824 246.079,285.515 244.217 C 285.189 242.245,284.865 241.473,284.178 241.022 C 282.915 240.195,282.509 238.541,282.213 233.002 C 282.007 229.158,281.810 228.045,281.225 227.402 C 280.193 226.270,279.315 224.421,278.992 222.700 C 278.841 221.891,278.453 221.010,278.132 220.743 C 277.037 219.835,276.412 218.066,275.795 214.131 C 275.431 211.812,274.789 209.462,274.230 208.400 C 273.708 207.410,272.992 205.181,272.638 203.446 C 272.118 200.893,271.726 199.994,270.585 198.730 C 269.809 197.871,269.074 196.668,268.951 196.055 C 268.751 195.053,268.341 194.810,264.864 193.624 C 262.739 192.899,260.820 192.168,260.600 191.999 C 260.380 191.830,259.570 191.569,258.800 191.418 C 256.062 190.881,253.387 189.888,252.496 189.077 C 251.896 188.530,250.113 187.949,247.184 187.345 C 244.689 186.831,242.284 186.087,241.646 185.632 C 240.876 185.084,238.938 184.587,235.558 184.070 C 232.110 183.543,229.990 182.994,228.600 182.268 C 227.483 181.684,225.345 181.046,223.758 180.821 C 220.382 180.344,219.777 180.141,218.200 178.960 C 217.540 178.466,215.740 177.775,214.200 177.425 C 211.764 176.871,211.208 176.569,209.923 175.094 C 207.683 172.525,207.066 173.141,206.772 178.242 C 206.619 180.906,206.310 182.648,205.825 183.571 L 205.106 184.942 204.155 183.371 C 203.632 182.507,203.203 181.677,203.202 181.527 C 203.201 181.377,202.800 181.127,202.310 180.972 C 201.821 180.816,200.563 179.859,199.515 178.845 C 198.467 177.830,197.158 176.601,196.605 176.114 C 194.694 174.430,195.453 170.092,197.816 169.194 C 198.411 168.968,198.894 168.324,199.141 167.429 C 199.355 166.654,200.111 165.160,200.820 164.110 C 202.076 162.251,202.118 162.044,202.419 156.400 C 202.747 150.243,203.045 148.976,204.596 147.132 C 205.131 146.496,205.749 145.323,205.970 144.525 C 206.190 143.728,206.829 142.596,207.389 142.011 C 207.950 141.426,208.781 139.888,209.236 138.594 C 209.691 137.299,210.482 135.743,210.994 135.134 C 212.059 133.869,212.269 132.829,212.790 126.256 C 213.259 120.326,213.647 119.600,216.347 119.600 C 218.752 119.600,219.439 118.899,219.683 116.194 C 219.800 114.899,220.261 113.589,220.982 112.499 C 222.089 110.826,222.101 110.739,222.306 102.843 L 222.514 94.874 220.891 94.046 C 217.813 92.476,217.018 90.684,216.409 83.947 C 215.809 77.318,215.370 75.318,214.212 73.941 C 213.635 73.255,213.042 71.793,212.760 70.359 C 212.420 68.633,211.889 67.464,210.913 66.296 C 210.159 65.394,209.192 63.968,208.763 63.128 C 208.334 62.288,207.806 61.600,207.588 61.600 C 207.371 61.600,206.128 60.655,204.827 59.500 C 199.773 55.015,198.787 54.252,197.440 53.789 C 196.673 53.526,195.497 52.848,194.826 52.283 C 194.026 51.610,192.534 51.024,190.502 50.584 C 188.796 50.215,186.780 49.558,186.022 49.124 C 183.767 47.833,174.195 47.192,169.200 47.997 M209.299 196.266 C 209.974 198.690,209.700 200.400,208.637 200.400 C 207.887 200.400,207.447 199.027,207.548 197.000 C 207.729 193.371,208.413 193.084,209.299 196.266 M185.600 198.200 C 185.600 198.953,185.077 199.218,184.407 198.804 C 183.949 198.521,183.943 198.351,184.371 197.835 C 184.945 197.144,185.600 197.339,185.600 198.200 M221.356 291.308 C 226.619 296.245,225.502 311.328,220.217 306.700 C 219.266 305.867,219.170 305.472,218.940 301.400 C 218.710 297.325,218.592 296.837,217.346 294.792 C 214.167 289.577,216.942 287.167,221.356 291.308 " stroke="none" fill="#040404" fill-rule="evenodd"></path><path id="path2" d="M39.986 39.010 C 39.233 39.566,38.409 40.410,38.153 40.887 C 37.537 42.038,37.402 358.082,38.017 359.231 C 38.238 359.646,39.087 360.438,39.903 360.992 L 41.386 362.000 199.713 362.000 C 338.716 362.000,358.179 361.928,359.185 361.408 C 359.814 361.082,360.705 360.338,361.165 359.754 L 362.000 358.692 362.000 199.884 L 362.000 41.076 360.383 39.538 L 358.766 38.000 200.061 38.000 L 41.355 38.000 39.986 39.010 M359.133 40.529 L 360.006 41.458 360.005 199.996 C 360.003 347.101,359.955 358.587,359.340 359.267 C 358.388 360.318,41.988 360.427,40.489 359.377 L 39.600 358.755 39.600 200.011 L 39.600 41.267 40.700 40.446 L 41.800 39.625 200.030 39.613 L 358.261 39.600 359.133 40.529 M168.600 45.849 C 165.171 46.222,162.853 46.875,161.555 47.834 C 160.810 48.384,159.253 49.110,158.095 49.447 C 156.938 49.784,155.498 50.471,154.895 50.975 C 154.293 51.479,153.009 52.292,152.043 52.783 C 151.076 53.273,149.845 54.198,149.307 54.837 C 148.769 55.477,148.091 56.000,147.800 56.000 C 147.509 56.000,146.779 56.585,146.178 57.300 C 145.576 58.014,144.566 58.914,143.934 59.299 C 143.301 59.683,142.587 60.429,142.348 60.955 C 142.108 61.481,141.499 62.133,140.996 62.402 C 140.492 62.672,139.755 63.637,139.358 64.546 C 138.961 65.456,138.160 66.760,137.578 67.445 C 136.779 68.386,136.352 69.608,135.832 72.445 C 135.453 74.510,134.979 76.605,134.780 77.101 C 133.865 79.370,133.110 86.325,133.301 90.734 C 133.548 96.438,133.162 98.107,131.348 99.177 C 128.509 100.853,128.547 110.048,131.407 113.208 C 131.724 113.558,132.246 115.218,132.567 116.895 C 133.134 119.856,134.006 122.109,134.767 122.579 C 134.971 122.706,135.439 123.714,135.807 124.820 C 136.678 127.442,137.734 128.154,140.000 127.645 C 143.366 126.888,144.754 128.739,145.966 135.605 C 146.537 138.836,147.042 140.506,147.763 141.549 C 148.316 142.347,148.961 143.904,149.197 145.009 C 149.485 146.351,150.102 147.546,151.057 148.609 C 154.573 152.521,155.987 153.971,158.751 156.502 C 160.374 157.988,162.190 159.974,162.786 160.914 C 163.382 161.854,164.304 162.915,164.835 163.273 C 165.366 163.630,166.496 164.589,167.347 165.404 C 168.197 166.219,169.682 167.235,170.647 167.662 C 171.611 168.088,172.400 168.604,172.400 168.808 C 172.400 170.016,176.211 170.852,181.718 170.852 C 189.747 170.852,191.035 172.966,186.078 178.010 C 184.385 179.733,181.920 182.309,180.600 183.736 C 177.785 186.778,175.003 187.022,174.183 184.300 C 174.034 183.805,173.421 182.860,172.821 182.200 C 172.220 181.540,171.219 180.100,170.596 179.000 C 169.972 177.900,169.131 176.763,168.726 176.474 C 168.321 176.184,167.635 175.252,167.201 174.403 C 166.768 173.553,166.047 172.742,165.600 172.600 C 165.152 172.458,164.540 171.752,164.238 171.030 C 163.937 170.309,163.130 169.320,162.445 168.832 C 161.760 168.345,161.200 167.759,161.200 167.532 C 161.200 167.150,160.176 165.899,155.753 160.872 C 154.847 159.842,153.810 158.420,153.448 157.712 C 153.087 157.003,152.447 156.239,152.025 156.013 C 151.522 155.744,151.088 154.809,150.764 153.301 C 150.104 150.227,149.744 149.600,148.641 149.600 C 147.460 149.600,143.771 152.903,142.774 154.854 C 142.365 155.653,141.529 156.834,140.915 157.478 C 140.302 158.122,139.072 159.448,138.182 160.424 C 135.642 163.212,132.733 165.561,131.203 166.058 C 130.431 166.309,129.231 167.009,128.537 167.613 C 127.842 168.217,126.312 169.024,125.137 169.406 C 123.961 169.788,122.638 170.429,122.195 170.831 C 121.156 171.774,119.042 172.638,116.921 172.987 C 115.997 173.139,114.467 173.766,113.521 174.381 C 112.420 175.096,110.576 175.738,108.400 176.164 C 106.530 176.530,104.190 177.248,103.200 177.759 C 102.210 178.270,100.004 178.996,98.298 179.372 C 96.464 179.776,94.747 180.429,94.098 180.969 C 93.494 181.471,92.069 182.189,90.931 182.563 C 89.793 182.938,88.623 183.534,88.331 183.888 C 88.039 184.242,86.860 185.135,85.711 185.871 C 84.563 186.608,83.426 187.577,83.186 188.026 C 82.946 188.475,82.214 189.168,81.560 189.566 C 80.906 189.963,79.843 191.079,79.197 192.044 C 78.551 193.010,77.661 194.250,77.219 194.800 C 76.777 195.350,76.138 197.150,75.798 198.800 C 75.458 200.450,74.780 202.610,74.290 203.600 C 72.866 206.480,72.915 228.781,74.352 231.800 C 75.171 233.520,75.353 234.722,75.655 240.400 C 76.244 251.458,76.688 255.084,77.737 257.374 C 78.259 258.514,78.991 260.821,79.365 262.500 C 79.739 264.180,80.474 266.187,80.999 266.961 C 81.524 267.735,82.272 269.845,82.660 271.651 C 83.086 273.638,83.716 275.352,84.254 275.991 C 84.742 276.571,85.501 278.450,85.941 280.165 C 86.384 281.894,87.123 283.692,87.599 284.198 C 88.071 284.701,88.905 286.527,89.452 288.256 C 89.999 289.985,90.786 291.978,91.200 292.684 C 91.933 293.933,92.552 297.391,93.031 302.908 C 93.205 304.922,93.502 305.898,94.189 306.714 C 95.911 308.760,96.457 311.636,96.183 317.200 C 95.882 323.307,96.384 327.147,97.744 329.144 C 99.776 332.125,100.170 335.249,99.639 344.175 C 99.092 353.369,99.237 353.942,102.243 354.477 C 103.099 354.629,140.121 354.764,184.513 354.777 C 269.948 354.801,268.000 354.841,268.000 353.082 C 268.000 352.126,269.360 351.237,270.811 351.244 C 271.575 351.247,277.196 351.344,283.303 351.459 C 297.256 351.720,304.762 350.727,306.180 348.433 C 306.309 348.224,307.446 347.841,308.707 347.581 C 311.348 347.037,313.146 346.207,313.460 345.387 C 313.581 345.073,314.313 344.425,315.087 343.946 C 315.984 343.392,316.824 342.363,317.406 341.107 C 317.908 340.024,318.674 338.747,319.109 338.269 C 319.544 337.791,320.290 336.206,320.767 334.746 C 321.244 333.287,321.972 331.787,322.385 331.413 C 323.274 330.609,325.358 324.589,325.037 323.752 C 324.915 323.433,324.713 320.253,324.589 316.686 C 324.331 309.269,323.637 305.287,322.244 303.232 C 321.681 302.402,321.154 300.875,320.989 299.600 C 320.430 295.272,319.041 293.384,315.859 292.634 C 314.267 292.258,310.969 288.900,310.620 287.300 C 310.464 286.585,309.749 285.296,309.030 284.436 C 308.312 283.577,307.497 282.060,307.218 281.065 C 306.940 280.070,306.288 278.858,305.770 278.371 C 305.251 277.885,304.454 276.363,303.997 274.990 C 303.540 273.616,302.821 272.181,302.400 271.800 C 301.979 271.419,301.252 269.958,300.784 268.553 C 300.317 267.149,299.615 265.775,299.224 265.500 C 298.833 265.225,298.020 264.026,297.417 262.836 C 296.815 261.646,295.755 260.103,295.061 259.406 C 294.367 258.709,293.414 257.703,292.943 257.169 C 292.472 256.636,291.797 255.968,291.443 255.684 C 290.963 255.299,290.800 254.461,290.800 252.371 C 290.800 249.157,290.140 247.246,288.704 246.305 C 287.862 245.753,287.652 245.217,287.417 243.022 C 287.183 240.835,286.934 240.195,285.922 239.183 C 284.750 238.012,284.694 237.791,284.328 232.884 C 283.873 226.792,283.488 225.152,282.186 223.747 C 281.643 223.161,281.009 221.944,280.777 221.041 C 279.987 217.970,279.555 216.851,278.778 215.863 C 278.295 215.249,277.834 213.688,277.560 211.738 C 276.770 206.113,276.374 204.500,275.613 203.812 C 275.201 203.439,274.645 202.204,274.378 201.067 C 273.806 198.632,273.112 197.157,272.172 196.377 C 271.798 196.066,271.072 195.148,270.561 194.338 C 270.049 193.527,269.218 192.735,268.715 192.578 C 268.212 192.421,267.223 191.789,266.517 191.173 C 265.668 190.433,264.585 189.967,263.317 189.798 C 258.765 189.188,257.000 188.753,256.226 188.050 C 255.003 186.940,254.061 186.542,251.400 186.011 C 250.080 185.748,247.920 185.018,246.600 184.388 C 245.133 183.688,242.674 183.000,240.275 182.617 C 238.116 182.272,235.610 181.613,234.707 181.153 C 233.804 180.692,231.160 179.972,228.833 179.552 C 223.786 178.643,223.313 178.504,222.008 177.554 C 221.453 177.150,219.471 176.458,217.602 176.016 C 215.733 175.574,214.142 175.025,214.065 174.796 C 213.989 174.566,213.250 174.034,212.424 173.612 C 211.598 173.191,210.595 172.341,210.196 171.723 C 209.196 170.177,205.174 166.400,204.528 166.400 C 204.031 166.400,203.852 165.781,203.951 164.400 C 203.974 164.070,204.168 161.119,204.382 157.842 C 204.715 152.715,204.884 151.763,205.587 151.014 C 206.036 150.536,206.786 148.987,207.254 147.572 C 207.722 146.158,208.507 144.550,208.998 144.000 C 209.490 143.450,210.360 142.010,210.932 140.800 C 211.505 139.590,212.335 138.150,212.778 137.600 C 213.295 136.956,213.811 135.245,214.224 132.800 C 215.378 125.966,216.149 124.175,218.647 122.516 C 222.401 120.024,223.439 117.015,224.433 105.737 C 225.128 97.860,224.646 94.310,222.647 92.573 C 220.867 91.025,220.427 89.861,219.970 85.488 C 219.761 83.480,219.273 81.327,218.831 80.461 C 218.406 79.628,217.787 77.517,217.456 75.769 C 216.743 72.011,216.303 70.749,215.460 70.050 C 215.118 69.766,214.552 68.551,214.203 67.350 C 213.854 66.149,212.982 64.499,212.266 63.683 C 211.549 62.868,210.661 61.718,210.291 61.128 C 209.921 60.538,209.074 59.734,208.409 59.341 C 207.743 58.948,207.096 58.304,206.971 57.909 C 206.846 57.514,206.237 56.930,205.619 56.610 C 205.001 56.290,203.978 55.463,203.347 54.773 C 202.716 54.082,201.390 53.130,200.399 52.658 C 199.409 52.186,198.216 51.417,197.748 50.949 C 197.280 50.481,195.661 49.687,194.149 49.185 C 192.637 48.682,190.947 47.938,190.394 47.530 C 188.650 46.244,174.791 45.175,168.600 45.849 M180.406 46.830 C 184.843 47.186,186.363 47.487,189.186 48.566 C 191.064 49.284,193.453 50.185,194.496 50.567 C 195.539 50.950,196.496 51.432,196.624 51.639 C 196.752 51.846,197.699 52.448,198.728 52.978 C 199.758 53.507,201.165 54.448,201.856 55.070 C 202.547 55.691,204.572 57.449,206.356 58.975 C 208.140 60.501,209.600 61.879,209.600 62.037 C 209.600 62.195,210.187 63.027,210.905 63.886 C 211.623 64.746,212.539 66.248,212.941 67.224 C 213.343 68.201,214.204 70.146,214.855 71.546 C 215.654 73.266,216.612 76.902,217.807 82.745 L 219.576 91.398 221.476 93.046 L 223.376 94.694 223.533 98.949 C 223.736 104.411,222.961 112.082,221.982 114.317 C 221.568 115.262,221.113 116.655,220.971 117.414 C 220.633 119.213,218.594 121.003,216.500 121.338 L 214.892 121.595 214.458 124.097 C 214.220 125.474,213.830 128.220,213.593 130.200 C 213.142 133.951,209.837 141.738,207.983 143.415 C 207.569 143.790,207.016 144.750,206.755 145.548 C 206.493 146.347,205.706 148.084,205.005 149.409 C 203.839 151.615,203.709 152.239,203.463 156.809 C 203.154 162.551,202.697 164.595,201.408 166.000 C 200.903 166.550,200.375 167.380,200.236 167.844 C 200.096 168.309,199.253 169.363,198.363 170.186 C 196.830 171.604,196.759 171.773,197.022 173.342 C 197.368 175.409,201.115 179.152,202.867 179.182 C 203.454 179.192,204.219 179.309,204.567 179.443 C 205.355 179.745,205.401 178.391,204.736 174.507 C 204.481 173.018,204.401 171.114,204.559 170.275 L 204.846 168.750 205.633 169.751 C 206.066 170.302,206.771 170.864,207.199 171.000 C 207.627 171.135,208.975 172.221,210.195 173.412 C 212.127 175.299,212.857 175.714,215.844 176.625 C 217.731 177.200,219.862 178.018,220.579 178.441 C 221.296 178.864,223.574 179.573,225.641 180.016 C 227.709 180.460,230.660 181.264,232.200 181.803 C 233.740 182.342,236.620 183.075,238.600 183.432 C 240.580 183.789,243.237 184.515,244.504 185.047 C 245.771 185.578,247.973 186.284,249.399 186.614 C 250.824 186.945,253.207 187.843,254.695 188.610 C 256.279 189.427,258.698 190.247,260.533 190.589 C 262.256 190.911,264.236 191.473,264.933 191.839 C 265.630 192.205,266.872 192.843,267.693 193.258 C 268.514 193.672,269.448 194.504,269.769 195.106 C 270.090 195.708,270.806 196.714,271.360 197.343 C 271.913 197.971,272.661 199.321,273.020 200.343 C 273.380 201.364,274.194 203.640,274.830 205.400 C 275.465 207.160,276.256 210.213,276.587 212.183 C 276.918 214.154,277.640 216.674,278.192 217.783 C 278.744 218.893,279.474 220.610,279.813 221.600 C 280.153 222.590,280.843 224.030,281.347 224.800 C 282.754 226.948,283.198 228.643,283.224 231.960 C 283.261 236.673,283.696 238.548,285.132 240.184 C 286.130 241.320,286.400 241.989,286.400 243.325 C 286.400 245.017,287.151 246.557,288.429 247.487 C 289.266 248.096,290.000 250.929,290.000 253.550 C 290.000 255.462,290.127 255.692,293.001 258.988 C 294.651 260.881,296.437 263.289,296.969 264.340 C 297.502 265.391,298.211 266.477,298.545 266.754 C 298.879 267.032,299.624 268.492,300.200 270.000 C 300.776 271.508,301.496 272.948,301.800 273.200 C 302.104 273.452,302.821 274.884,303.393 276.383 C 303.966 277.881,304.779 279.419,305.201 279.801 C 305.622 280.182,306.261 281.379,306.620 282.459 C 306.979 283.540,307.686 284.916,308.191 285.516 C 308.695 286.116,309.408 287.325,309.775 288.203 C 310.687 290.392,312.615 292.321,315.000 293.432 C 318.651 295.133,319.706 296.573,320.143 300.455 C 320.291 301.774,321.001 303.982,321.854 305.779 L 323.312 308.848 323.622 316.861 C 323.963 325.691,323.722 327.217,321.457 330.555 C 320.876 331.410,320.204 332.850,319.964 333.755 C 319.723 334.660,319.082 335.987,318.539 336.705 C 317.996 337.423,317.124 338.976,316.603 340.156 C 315.971 341.584,315.201 342.581,314.300 343.138 C 313.556 343.598,312.612 344.345,312.203 344.797 C 311.793 345.250,310.185 346.002,308.629 346.468 C 307.073 346.934,304.810 347.809,303.600 348.413 C 299.957 350.229,296.748 350.516,282.756 350.277 C 275.850 350.159,269.739 349.944,269.175 349.799 C 268.266 349.565,268.067 349.721,267.404 351.192 C 266.993 352.103,266.284 353.063,265.828 353.324 C 265.196 353.688,245.751 353.800,183.511 353.800 L 102.022 353.800 101.142 352.920 C 100.106 351.884,100.082 349.970,101.020 343.230 C 101.866 337.149,100.959 331.934,98.163 326.800 C 97.497 325.578,97.395 324.484,97.364 318.200 C 97.327 310.666,96.990 308.706,95.240 305.857 C 94.725 305.019,94.182 302.601,93.611 298.600 C 92.938 293.893,92.465 291.953,91.418 289.600 C 90.684 287.950,89.967 286.209,89.824 285.730 C 89.682 285.252,89.120 284.205,88.577 283.404 C 88.033 282.602,87.237 280.681,86.808 279.133 C 86.379 277.585,85.584 275.560,85.040 274.632 C 84.496 273.704,83.763 271.697,83.411 270.172 C 83.059 268.648,82.305 266.505,81.736 265.411 C 80.856 263.723,80.007 260.810,77.588 251.179 C 77.392 250.398,77.043 246.279,76.812 242.027 C 76.566 237.495,76.063 232.719,75.596 230.484 C 74.943 227.358,74.800 225.114,74.800 218.002 C 74.800 203.863,76.811 195.678,81.387 191.200 C 84.847 187.814,87.800 185.577,90.950 183.957 C 95.876 181.423,98.567 180.299,101.000 179.758 C 102.540 179.416,104.610 178.795,105.600 178.379 C 106.590 177.962,108.840 177.235,110.600 176.764 C 112.360 176.292,114.520 175.495,115.400 174.994 C 116.280 174.492,118.076 173.777,119.391 173.403 C 120.706 173.030,122.263 172.382,122.851 171.963 C 123.439 171.545,125.087 170.679,126.513 170.039 C 127.939 169.399,129.238 168.662,129.400 168.400 C 129.562 168.138,130.803 167.427,132.158 166.819 C 135.117 165.491,141.387 159.474,143.248 156.176 C 144.275 154.357,147.563 151.200,148.431 151.200 C 148.595 151.200,149.211 152.460,149.800 154.000 C 150.388 155.539,151.088 156.934,151.355 157.100 C 151.622 157.265,152.273 158.030,152.802 158.800 C 153.331 159.570,155.032 161.704,156.582 163.543 C 158.132 165.382,159.760 167.362,160.200 167.943 C 160.640 168.524,161.540 169.574,162.200 170.275 C 162.860 170.976,164.120 172.465,165.000 173.583 C 165.880 174.702,167.161 176.288,167.847 177.109 C 168.533 177.929,169.459 179.320,169.905 180.200 C 170.350 181.080,171.092 182.141,171.554 182.559 C 172.015 182.976,172.848 184.093,173.403 185.042 C 174.170 186.351,174.774 186.866,175.907 187.181 C 178.271 187.838,178.458 187.753,181.200 184.766 C 182.630 183.209,185.215 180.474,186.944 178.688 L 190.087 175.442 189.843 173.661 C 189.410 170.501,188.020 169.882,181.200 169.815 C 176.392 169.768,175.832 169.619,172.200 167.411 C 169.621 165.843,164.996 161.915,163.958 160.411 C 163.431 159.646,160.653 156.676,157.784 153.811 C 151.556 147.588,150.588 146.370,149.993 144.005 C 149.744 143.012,149.035 141.030,148.418 139.600 C 147.801 138.170,147.080 135.740,146.815 134.200 C 145.555 126.867,144.888 126.068,140.424 126.534 C 137.683 126.821,137.539 126.709,136.414 123.441 C 135.984 122.191,135.267 120.656,134.820 120.028 C 134.373 119.400,133.729 117.562,133.388 115.943 C 133.048 114.324,132.229 111.891,131.568 110.535 C 130.469 108.279,130.378 107.774,130.484 104.550 L 130.600 101.029 132.000 100.131 C 135.276 98.030,135.000 98.857,135.000 91.145 C 135.000 87.325,135.219 82.850,135.487 81.200 C 135.754 79.550,136.173 76.686,136.418 74.837 C 137.091 69.747,139.333 65.723,144.295 60.700 C 146.414 58.555,148.294 56.800,148.473 56.800 C 148.652 56.800,149.473 56.194,150.299 55.453 C 151.124 54.712,152.610 53.698,153.600 53.201 C 154.590 52.703,155.888 51.952,156.485 51.532 C 157.081 51.111,158.584 50.418,159.825 49.991 C 161.066 49.565,162.648 48.868,163.340 48.443 C 164.953 47.454,168.687 46.750,173.820 46.467 C 174.491 46.430,177.455 46.594,180.406 46.830 M202.703 167.700 C 203.390 168.556,203.261 175.670,202.544 176.461 C 201.607 177.497,198.982 175.592,198.375 173.436 C 197.953 171.937,197.987 171.831,199.177 170.899 C 199.861 170.364,200.676 169.313,200.990 168.563 C 201.594 167.117,202.051 166.887,202.703 167.700 M217.850 291.519 C 217.465 292.142,218.327 293.033,218.828 292.532 C 219.082 292.278,219.169 291.874,219.022 291.635 C 218.706 291.124,218.130 291.067,217.850 291.519 M220.120 294.169 C 219.516 295.245,220.159 304.730,220.885 305.457 C 223.219 307.790,224.550 299.606,222.598 294.933 C 222.006 293.516,220.711 293.117,220.120 294.169 M222.313 300.400 C 222.317 301.830,222.184 303.450,222.018 304.000 L 221.715 305.000 221.357 303.800 C 220.940 302.397,221.026 296.601,221.475 295.888 C 221.916 295.189,222.304 297.276,222.313 300.400 " stroke="none" fill="#848484" fill-rule="evenodd"></path><path id="path3" d="M39.903 38.608 C 38.461 39.587,37.335 41.068,37.731 41.464 C 37.839 41.572,38.035 41.319,38.168 40.902 C 38.300 40.486,38.991 39.707,39.704 39.172 L 41.000 38.200 199.800 37.999 L 358.600 37.798 199.993 37.699 L 41.386 37.600 39.903 38.608 M360.183 39.289 C 361.549 40.489,361.802 40.976,362.027 42.840 L 362.287 45.000 362.344 43.131 C 362.404 41.141,361.284 39.283,359.457 38.340 C 358.986 38.097,359.312 38.524,360.183 39.289 M37.765 49.200 C 37.765 53.050,37.825 54.625,37.898 52.700 C 37.971 50.775,37.971 47.625,37.898 45.700 C 37.825 43.775,37.765 45.350,37.765 49.200 M173.500 46.689 C 174.215 46.778,175.385 46.778,176.100 46.689 C 176.815 46.601,176.230 46.528,174.800 46.528 C 173.370 46.528,172.785 46.601,173.500 46.689 M362.198 199.000 C 362.198 283.040,362.244 317.360,362.300 275.267 C 362.356 233.175,362.356 164.415,362.300 122.467 C 362.244 80.520,362.198 114.960,362.198 199.000 M180.900 47.076 C 181.285 47.176,181.915 47.176,182.300 47.076 C 182.685 46.975,182.370 46.893,181.600 46.893 C 180.830 46.893,180.515 46.975,180.900 47.076 M163.400 48.400 C 161.836 49.436,162.392 49.437,164.090 48.401 C 164.811 47.962,165.220 47.604,165.000 47.604 C 164.780 47.605,164.060 47.963,163.400 48.400 M197.103 52.300 C 197.621 52.795,198.260 53.195,198.522 53.188 C 198.785 53.181,198.640 52.976,198.200 52.732 C 197.760 52.488,197.121 52.088,196.780 51.844 C 196.440 51.600,196.585 51.805,197.103 52.300 M150.575 55.300 L 149.400 56.600 150.700 55.425 C 151.912 54.330,152.184 54.000,151.875 54.000 C 151.806 54.000,151.221 54.585,150.575 55.300 M213.600 69.753 C 213.600 70.182,214.790 72.400,215.021 72.400 C 215.131 72.400,214.923 71.815,214.559 71.100 C 213.817 69.640,213.600 69.336,213.600 69.753 M136.093 77.200 C 136.093 77.970,136.175 78.285,136.276 77.900 C 136.376 77.515,136.376 76.885,136.276 76.500 C 136.175 76.115,136.093 76.430,136.093 77.200 M135.693 81.200 C 135.693 81.970,135.775 82.285,135.876 81.900 C 135.976 81.515,135.976 80.885,135.876 80.500 C 135.775 80.115,135.693 80.430,135.693 81.200 M37.734 83.200 C 37.734 84.850,37.805 85.525,37.891 84.700 C 37.978 83.875,37.978 82.525,37.891 81.700 C 37.805 80.875,37.734 81.550,37.734 83.200 M135.053 84.036 C 134.914 84.731,134.821 85.773,134.847 86.350 C 134.872 86.928,135.055 86.427,135.252 85.239 C 135.637 82.921,135.473 81.934,135.053 84.036 M134.909 90.800 C 134.909 91.790,134.987 92.195,135.082 91.700 C 135.178 91.205,135.178 90.395,135.082 89.900 C 134.987 89.405,134.909 89.810,134.909 90.800 M135.314 94.600 C 135.317 95.700,135.395 96.103,135.487 95.495 C 135.579 94.886,135.577 93.986,135.482 93.495 C 135.387 93.003,135.311 93.500,135.314 94.600 M134.846 97.420 C 134.821 97.871,134.621 98.457,134.401 98.721 C 134.182 98.986,134.290 98.953,134.640 98.649 C 134.990 98.344,135.190 97.758,135.085 97.347 C 134.912 96.674,134.888 96.681,134.846 97.420 M131.454 100.429 C 130.844 100.909,130.420 101.625,130.446 102.129 C 130.489 102.935,130.506 102.940,130.675 102.200 C 130.775 101.760,131.339 100.996,131.928 100.502 C 133.276 99.372,132.876 99.311,131.454 100.429 M223.293 104.800 C 223.293 105.570,223.375 105.885,223.476 105.500 C 223.576 105.115,223.576 104.485,223.476 104.100 C 223.375 103.715,223.293 104.030,223.293 104.800 M130.493 107.200 C 130.493 107.970,130.575 108.285,130.676 107.900 C 130.776 107.515,130.776 106.885,130.676 106.500 C 130.575 106.115,130.493 106.430,130.493 107.200 M222.893 108.800 C 222.893 109.570,222.975 109.885,223.076 109.500 C 223.176 109.115,223.176 108.485,223.076 108.100 C 222.975 107.715,222.893 108.030,222.893 108.800 M221.665 114.217 C 220.995 115.688,221.123 116.002,221.847 114.665 C 222.186 114.040,222.388 113.454,222.296 113.363 C 222.205 113.271,221.921 113.656,221.665 114.217 M137.549 126.100 C 137.851 126.485,138.481 126.779,138.949 126.754 C 139.757 126.710,139.760 126.697,139.000 126.511 C 138.560 126.402,137.930 126.108,137.600 125.857 C 137.078 125.460,137.072 125.491,137.549 126.100 M141.105 126.283 C 141.602 126.379,142.322 126.375,142.705 126.275 C 143.087 126.175,142.680 126.096,141.800 126.101 C 140.920 126.105,140.607 126.187,141.105 126.283 M210.955 137.412 C 210.590 137.969,210.364 138.498,210.453 138.587 C 210.542 138.676,210.918 138.220,211.289 137.574 C 212.114 136.136,211.869 136.017,210.955 137.412 M156.600 152.800 C 158.792 155.000,160.675 156.800,160.785 156.800 C 160.895 156.800,159.192 155.000,157.000 152.800 C 154.808 150.600,152.925 148.800,152.815 148.800 C 152.705 148.800,154.408 150.600,156.600 152.800 M145.600 153.254 L 143.800 154.885 145.494 153.613 C 146.968 152.507,147.914 151.574,147.524 151.612 C 147.456 151.619,146.590 152.358,145.600 153.254 M203.324 156.200 C 203.326 157.520,203.401 158.012,203.490 157.293 C 203.579 156.574,203.577 155.494,203.486 154.893 C 203.395 154.292,203.322 154.880,203.324 156.200 M161.994 157.803 C 163.587 159.721,163.721 159.845,163.286 158.996 C 163.059 158.553,162.452 157.834,161.937 157.398 C 161.033 156.634,161.035 156.648,161.994 157.803 M140.778 159.500 L 139.400 161.000 140.900 159.622 C 141.725 158.863,142.400 158.188,142.400 158.122 C 142.400 157.816,142.062 158.104,140.778 159.500 M37.734 163.200 C 37.734 164.850,37.805 165.525,37.891 164.700 C 37.978 163.875,37.978 162.525,37.891 161.700 C 37.805 160.875,37.734 161.550,37.734 163.200 M135.578 164.700 L 134.200 166.200 135.700 164.822 C 136.525 164.063,137.200 163.388,137.200 163.322 C 137.200 163.016,136.862 163.304,135.578 164.700 M201.234 165.753 L 200.269 167.000 201.413 165.912 C 202.043 165.314,202.477 164.753,202.379 164.665 C 202.280 164.577,201.765 165.067,201.234 165.753 M158.400 166.200 C 159.146 166.970,159.847 167.600,159.957 167.600 C 160.067 167.600,159.546 166.970,158.800 166.200 C 158.054 165.430,157.353 164.800,157.243 164.800 C 157.133 164.800,157.654 165.430,158.400 166.200 M172.200 167.268 C 172.640 167.512,173.279 167.912,173.620 168.156 C 173.960 168.400,173.815 168.195,173.297 167.700 C 172.779 167.205,172.140 166.805,171.878 166.812 C 171.615 166.819,171.760 167.024,172.200 167.268 M204.800 169.154 C 204.800 169.836,205.904 170.817,207.336 171.407 C 208.181 171.756,208.756 171.852,208.613 171.621 C 208.470 171.389,208.080 171.200,207.746 171.200 C 207.412 171.200,206.612 170.674,205.969 170.031 C 205.326 169.388,204.800 168.993,204.800 169.154 M178.705 169.883 C 179.202 169.979,179.922 169.975,180.305 169.875 C 180.687 169.775,180.280 169.696,179.400 169.701 C 178.520 169.705,178.207 169.787,178.705 169.883 M196.854 174.051 C 196.824 174.630,197.114 175.348,197.500 175.651 C 198.109 176.129,198.140 176.122,197.738 175.600 C 197.484 175.270,197.194 174.550,197.093 174.000 L 196.909 173.000 196.854 174.051 M115.900 174.629 C 114.349 175.470,114.525 175.761,116.100 174.959 C 117.608 174.193,117.875 173.994,117.367 174.016 C 117.165 174.025,116.505 174.301,115.900 174.629 M166.800 176.525 C 166.800 176.594,167.385 177.179,168.100 177.825 L 169.400 179.000 168.225 177.700 C 167.130 176.488,166.800 176.216,166.800 176.525 M205.254 177.862 L 205.200 179.524 203.500 179.309 C 202.565 179.191,201.440 178.803,201.000 178.447 C 200.207 177.806,200.206 177.808,200.962 178.700 C 201.381 179.195,202.106 179.600,202.573 179.600 C 203.040 179.600,203.813 179.874,204.291 180.209 C 205.257 180.885,205.890 179.271,205.489 177.152 C 205.378 176.565,205.288 176.837,205.254 177.862 M106.000 178.200 C 105.450 178.514,105.180 178.772,105.400 178.772 C 105.620 178.772,106.250 178.514,106.800 178.200 C 107.350 177.886,107.620 177.628,107.400 177.628 C 107.180 177.628,106.550 177.886,106.000 178.200 M170.400 181.725 C 170.400 181.794,170.985 182.379,171.700 183.025 L 173.000 184.200 171.825 182.900 C 170.730 181.688,170.400 181.416,170.400 181.725 M264.800 192.020 C 266.187 192.961,266.978 193.235,266.000 192.436 C 265.450 191.986,264.820 191.617,264.600 191.615 C 264.380 191.613,264.470 191.796,264.800 192.020 M74.934 211.200 C 74.934 212.850,75.005 213.525,75.091 212.700 C 75.178 211.875,75.178 210.525,75.091 209.700 C 75.005 208.875,74.934 209.550,74.934 211.200 M74.924 225.400 C 74.926 226.720,75.001 227.212,75.090 226.493 C 75.179 225.774,75.177 224.694,75.086 224.093 C 74.995 223.492,74.922 224.080,74.924 225.400 M282.893 229.600 C 282.893 230.370,282.975 230.685,283.076 230.300 C 283.176 229.915,283.176 229.285,283.076 228.900 C 282.975 228.515,282.893 228.830,282.893 229.600 M76.501 236.200 C 76.505 237.080,76.587 237.393,76.683 236.895 C 76.779 236.398,76.775 235.678,76.675 235.295 C 76.575 234.913,76.496 235.320,76.501 236.200 M37.740 242.800 C 37.740 244.670,37.809 245.435,37.893 244.500 C 37.977 243.565,37.977 242.035,37.893 241.100 C 37.809 240.165,37.740 240.930,37.740 242.800 M76.924 243.800 C 76.926 245.120,77.001 245.612,77.090 244.893 C 77.179 244.174,77.177 243.094,77.086 242.493 C 76.995 241.892,76.922 242.480,76.924 243.800 M289.693 254.000 C 289.693 254.770,289.775 255.085,289.876 254.700 C 289.976 254.315,289.976 253.685,289.876 253.300 C 289.775 252.915,289.693 253.230,289.693 254.000 M293.200 259.725 C 293.200 259.794,293.785 260.379,294.500 261.025 L 295.800 262.200 294.625 260.900 C 293.530 259.688,293.200 259.416,293.200 259.725 M84.015 272.600 C 84.020 272.820,84.468 273.720,85.010 274.600 C 85.552 275.480,85.991 276.020,85.985 275.800 C 85.980 275.580,85.532 274.680,84.990 273.800 C 84.448 272.920,84.009 272.380,84.015 272.600 M217.625 291.370 C 217.219 291.859,217.315 292.152,218.165 293.001 C 218.734 293.571,219.200 294.208,219.200 294.418 C 219.200 295.042,219.894 294.852,220.162 294.154 C 220.329 293.720,220.732 293.570,221.393 293.697 C 221.933 293.800,222.281 293.730,222.164 293.542 C 222.048 293.354,221.523 293.200,220.998 293.200 C 220.360 293.200,219.871 292.845,219.522 292.130 C 218.885 290.823,218.280 290.581,217.625 291.370 M219.022 291.635 C 219.169 291.874,219.082 292.278,218.828 292.532 C 218.327 293.033,217.465 292.142,217.850 291.519 C 218.130 291.067,218.706 291.124,219.022 291.635 M219.701 296.600 C 219.705 297.480,219.787 297.793,219.883 297.295 C 219.979 296.798,219.975 296.078,219.875 295.695 C 219.775 295.313,219.696 295.720,219.701 296.600 M220.054 304.238 C 220.001 305.053,221.101 306.400,221.820 306.400 C 222.017 306.400,221.790 306.128,221.316 305.796 C 220.842 305.465,220.377 304.790,220.282 304.296 C 220.119 303.454,220.106 303.450,220.054 304.238 M323.320 312.800 C 323.320 314.010,323.395 314.505,323.487 313.900 C 323.578 313.295,323.578 312.305,323.487 311.700 C 323.395 311.095,323.320 311.590,323.320 312.800 M323.309 317.200 C 323.309 318.190,323.387 318.595,323.482 318.100 C 323.578 317.605,323.578 316.795,323.482 316.300 C 323.387 315.805,323.309 316.210,323.309 317.200 M97.348 320.000 C 97.348 322.310,97.414 323.255,97.495 322.100 C 97.576 320.945,97.576 319.055,97.495 317.900 C 97.414 316.745,97.348 317.690,97.348 320.000 M37.734 323.200 C 37.734 324.850,37.805 325.525,37.891 324.700 C 37.978 323.875,37.978 322.525,37.891 321.700 C 37.805 320.875,37.734 321.550,37.734 323.200 M323.709 323.600 C 323.709 324.590,323.787 324.995,323.882 324.500 C 323.978 324.005,323.978 323.195,323.882 322.700 C 323.787 322.205,323.709 322.610,323.709 323.600 M321.229 330.254 C 320.773 330.834,320.405 331.509,320.412 331.754 C 320.419 331.999,320.624 331.840,320.868 331.400 C 321.112 330.960,321.585 330.285,321.918 329.900 C 322.251 329.515,322.419 329.200,322.291 329.200 C 322.163 329.200,321.685 329.674,321.229 330.254 M101.709 338.400 C 101.709 339.390,101.787 339.795,101.882 339.300 C 101.978 338.805,101.978 337.995,101.882 337.500 C 101.787 337.005,101.709 337.410,101.709 338.400 M100.493 347.600 C 100.493 348.370,100.575 348.685,100.676 348.300 C 100.776 347.915,100.776 347.285,100.676 346.900 C 100.575 346.515,100.493 346.830,100.493 347.600 M100.962 352.700 C 101.519 353.357,102.112 353.583,103.162 353.536 L 104.600 353.472 103.200 353.305 C 102.430 353.213,101.440 352.837,101.000 352.469 C 100.206 351.805,100.206 351.807,100.962 352.700 M154.300 353.900 C 169.975 353.958,195.625 353.958,211.300 353.900 C 226.975 353.842,214.150 353.795,182.800 353.795 C 151.450 353.795,138.625 353.842,154.300 353.900 M362.000 357.311 C 362.000 358.886,361.147 360.200,359.453 361.233 C 358.764 361.653,358.446 361.998,358.747 361.999 C 359.960 362.002,362.400 358.962,362.400 357.447 C 362.400 356.651,362.310 356.000,362.200 356.000 C 362.090 356.000,362.000 356.590,362.000 357.311 M39.185 360.771 C 39.947 361.447,40.742 362.000,40.952 362.000 C 41.162 362.000,41.258 361.948,41.167 361.884 C 41.075 361.820,40.280 361.267,39.400 360.655 L 37.800 359.542 39.185 360.771 M42.100 362.276 C 42.485 362.376,43.115 362.376,43.500 362.276 C 43.885 362.175,43.570 362.093,42.800 362.093 C 42.030 362.093,41.715 362.175,42.100 362.276 M52.700 362.299 C 56.275 362.366,62.125 362.366,65.700 362.299 C 69.275 362.233,66.350 362.179,59.200 362.179 C 52.050 362.179,49.125 362.233,52.700 362.299 M85.700 362.298 C 88.065 362.369,91.935 362.369,94.300 362.298 C 96.665 362.228,94.730 362.170,90.000 362.170 C 85.270 362.170,83.335 362.228,85.700 362.298 M288.130 362.300 C 299.312 362.359,317.492 362.359,328.530 362.300 C 339.569 362.241,330.420 362.192,308.200 362.192 C 285.980 362.192,276.949 362.241,288.130 362.300 " stroke="none" fill="#747478" fill-rule="evenodd"></path><path id="path4" d="M39.214 37.101 C 38.451 37.485,37.507 38.356,37.115 39.034 C 36.001 40.966,35.997 359.027,37.111 360.958 C 38.788 363.866,22.333 363.600,199.800 363.591 C 378.785 363.581,361.412 363.890,362.930 360.690 C 363.953 358.535,363.967 41.495,362.945 39.340 C 362.546 38.500,361.692 37.655,360.761 37.180 C 358.489 36.021,41.508 35.943,39.214 37.101 M359.172 38.186 C 359.795 38.508,360.776 39.332,361.353 40.017 L 362.402 41.263 362.391 200.088 L 362.381 358.913 360.891 360.395 L 359.400 361.877 350.800 362.102 C 346.070 362.225,274.394 362.272,191.519 362.204 L 40.839 362.082 39.619 361.213 C 38.947 360.735,38.218 360.007,37.997 359.595 C 37.434 358.542,37.448 41.432,38.011 40.379 C 38.236 39.959,39.087 39.162,39.903 38.608 L 41.386 37.600 199.713 37.600 C 337.939 37.600,358.184 37.674,359.172 38.186 M167.570 47.317 C 166.123 47.592,164.501 48.104,163.965 48.455 C 163.428 48.807,161.642 49.580,159.996 50.174 C 158.350 50.768,156.733 51.491,156.402 51.780 C 156.071 52.070,154.990 52.712,154.000 53.206 C 153.010 53.701,151.524 54.712,150.699 55.453 C 149.873 56.194,149.042 56.800,148.852 56.800 C 148.219 56.800,140.478 64.724,140.188 65.669 C 140.030 66.181,139.307 67.590,138.581 68.800 C 137.191 71.115,136.610 73.447,136.189 78.400 C 136.048 80.050,135.683 82.882,135.377 84.693 C 134.948 87.235,134.915 88.739,135.235 91.288 C 135.916 96.720,135.539 98.159,133.012 99.775 C 129.998 101.703,129.550 105.905,131.867 110.515 C 132.396 111.569,133.120 113.729,133.476 115.315 C 133.832 116.902,134.725 119.340,135.462 120.733 C 136.198 122.126,136.800 123.674,136.800 124.171 C 136.800 125.788,138.081 126.519,140.363 126.205 C 144.726 125.605,145.619 126.552,146.784 133.012 C 147.187 135.245,147.974 138.046,148.533 139.236 C 149.092 140.426,149.766 142.300,150.030 143.400 C 150.663 146.036,152.675 148.620,158.324 154.051 C 160.863 156.492,163.404 159.166,163.970 159.994 C 165.146 161.711,171.004 166.800,171.807 166.800 C 172.099 166.800,172.886 167.261,173.556 167.824 C 175.307 169.298,176.842 169.637,181.800 169.646 C 187.666 169.656,189.280 170.307,189.940 172.928 C 190.545 175.328,190.635 175.032,188.700 177.008 C 187.765 177.964,185.560 180.323,183.800 182.251 C 178.244 188.337,178.625 188.023,177.134 187.748 C 175.267 187.404,174.149 186.620,173.053 184.884 C 172.534 184.061,171.800 183.132,171.423 182.819 C 171.046 182.506,170.321 181.429,169.812 180.425 C 169.303 179.421,168.489 178.240,168.002 177.801 C 167.516 177.361,166.845 176.461,166.511 175.801 C 166.176 175.140,165.372 174.060,164.722 173.400 C 163.641 172.301,159.420 167.406,155.370 162.553 C 154.473 161.479,153.401 160.060,152.987 159.400 C 152.574 158.740,151.732 157.609,151.118 156.886 C 150.503 156.163,149.996 155.353,149.991 155.086 C 149.986 154.819,149.630 153.822,149.198 152.872 L 148.414 151.144 146.388 152.872 C 145.274 153.822,144.089 155.168,143.754 155.861 C 142.184 159.115,135.564 165.529,132.275 166.984 C 131.064 167.519,129.943 168.169,129.782 168.428 C 129.622 168.687,128.301 169.439,126.847 170.099 C 125.392 170.758,123.768 171.639,123.238 172.056 C 122.708 172.473,121.267 173.104,120.037 173.458 C 118.807 173.813,116.906 174.552,115.814 175.102 C 114.721 175.651,112.381 176.508,110.614 177.006 C 108.846 177.504,106.749 178.194,105.953 178.539 C 105.158 178.884,103.178 179.460,101.553 179.820 C 91.624 182.017,81.449 189.501,77.649 197.400 C 75.268 202.352,74.090 222.742,75.767 230.000 C 76.155 231.679,76.696 236.875,76.996 241.800 C 77.395 248.352,77.741 251.264,78.347 253.200 C 78.795 254.630,79.540 257.510,80.003 259.600 C 80.466 261.690,81.275 264.136,81.802 265.036 C 82.328 265.936,83.061 267.916,83.430 269.436 C 83.799 270.956,84.520 272.938,85.032 273.841 C 85.545 274.743,86.330 276.801,86.777 278.413 C 87.223 280.025,88.016 281.989,88.537 282.777 C 89.059 283.566,89.626 284.658,89.798 285.205 C 89.970 285.752,90.707 287.479,91.437 289.042 C 92.317 290.929,92.972 293.215,93.384 295.842 C 94.667 304.015,94.849 304.903,95.412 305.762 C 97.106 308.348,97.600 311.133,97.609 318.163 C 97.617 324.214,97.713 325.207,98.444 326.800 C 99.454 329.001,101.451 334.998,101.810 336.910 C 101.954 337.681,101.796 339.997,101.457 342.056 C 100.259 349.350,100.203 351.698,101.204 352.604 C 102.228 353.530,263.899 354.110,265.613 353.193 C 266.044 352.962,266.780 352.014,267.248 351.087 C 267.716 350.159,268.124 349.367,268.155 349.327 C 268.186 349.288,269.919 349.511,272.006 349.825 C 281.866 351.305,298.793 350.433,303.400 348.207 C 304.940 347.463,306.830 346.736,307.600 346.593 C 310.775 346.003,315.264 342.679,316.416 340.065 C 316.868 339.039,317.674 337.567,318.208 336.794 C 318.742 336.021,319.546 334.320,319.995 333.013 C 320.445 331.707,321.164 330.264,321.593 329.808 C 324.421 326.797,324.256 310.734,321.338 305.155 C 320.794 304.114,320.179 302.067,319.973 300.608 C 319.384 296.451,318.300 294.967,314.782 293.500 C 312.767 292.661,310.577 290.499,309.613 288.400 C 309.159 287.410,308.342 285.991,307.798 285.247 C 307.254 284.503,306.637 283.274,306.428 282.516 C 306.218 281.758,305.561 280.500,304.967 279.721 C 304.373 278.943,303.545 277.405,303.127 276.304 C 302.708 275.203,301.946 273.739,301.433 273.051 C 300.920 272.363,300.190 270.846,299.811 269.679 C 299.432 268.513,298.802 267.253,298.410 266.879 C 298.019 266.506,297.321 265.451,296.860 264.536 C 296.045 262.920,294.220 260.572,291.395 257.502 C 289.902 255.879,289.378 254.490,289.740 253.109 C 290.129 251.622,289.150 248.683,287.738 247.099 C 287.002 246.273,286.400 245.171,286.400 244.649 C 286.400 242.715,285.887 241.255,284.784 240.047 C 283.559 238.706,283.394 237.929,282.998 231.631 C 282.788 228.286,282.586 227.521,281.207 224.831 C 278.247 219.059,276.862 215.435,276.378 212.200 C 276.115 210.440,275.479 207.920,274.965 206.600 C 274.451 205.280,273.656 202.982,273.197 201.493 C 272.739 200.005,271.869 198.205,271.264 197.493 C 270.660 196.782,269.872 195.734,269.515 195.164 C 268.610 193.722,263.645 191.398,259.818 190.626 C 258.033 190.266,255.691 189.451,254.485 188.770 C 253.303 188.103,250.866 187.191,249.070 186.744 C 247.275 186.297,245.022 185.574,244.064 185.138 C 243.107 184.702,240.424 183.985,238.103 183.545 C 235.782 183.105,232.965 182.405,231.842 181.989 C 230.719 181.574,227.893 180.786,225.562 180.240 C 223.231 179.693,220.711 178.891,219.962 178.458 C 219.213 178.024,217.291 177.285,215.692 176.815 C 212.954 176.011,210.648 174.535,209.286 172.713 C 209.004 172.335,207.969 171.670,206.986 171.235 C 206.004 170.801,205.185 170.210,205.166 169.922 C 205.147 169.635,204.977 169.914,204.789 170.542 C 204.566 171.288,204.664 172.767,205.074 174.810 C 205.892 178.890,205.571 181.105,204.291 180.209 C 203.813 179.874,203.017 179.600,202.523 179.600 C 201.989 179.600,201.266 179.115,200.742 178.407 C 200.256 177.750,199.171 176.758,198.330 176.201 C 196.127 174.744,196.054 171.810,198.179 170.189 C 198.938 169.610,199.755 168.542,199.995 167.817 C 200.234 167.091,200.785 166.175,201.219 165.783 C 202.369 164.742,203.200 161.493,203.202 158.027 C 203.205 153.935,203.796 150.610,204.760 149.256 C 205.199 148.639,205.941 147.159,206.408 145.967 C 206.875 144.775,207.665 143.350,208.164 142.800 C 208.662 142.250,209.463 140.857,209.944 139.704 C 210.425 138.551,211.238 136.991,211.749 136.237 C 212.653 134.904,213.241 132.172,213.821 126.600 C 214.311 121.899,214.597 121.303,216.506 120.996 C 219.092 120.580,219.900 119.867,220.629 117.359 C 220.987 116.129,221.597 114.375,221.986 113.461 C 222.889 111.338,223.789 101.300,223.402 97.670 C 223.060 94.456,222.745 93.799,221.157 92.978 C 219.493 92.117,219.110 90.996,217.408 82.010 C 216.319 76.264,215.632 73.641,214.788 72.010 C 214.159 70.795,213.342 68.926,212.973 67.858 C 212.604 66.790,211.809 65.350,211.206 64.658 C 210.604 63.966,209.811 62.815,209.445 62.100 C 209.079 61.385,208.585 60.800,208.348 60.800 C 208.110 60.800,207.170 60.078,206.258 59.196 C 203.534 56.561,200.391 54.086,198.849 53.362 C 198.052 52.988,196.893 52.260,196.273 51.745 C 195.654 51.229,193.854 50.420,192.273 49.948 C 190.693 49.476,189.220 48.952,189.000 48.785 C 186.922 47.207,173.125 46.262,167.570 47.317 M181.222 47.974 C 183.320 48.195,185.176 48.640,186.022 49.124 C 186.780 49.558,188.796 50.215,190.502 50.584 C 192.534 51.024,194.026 51.610,194.826 52.283 C 195.497 52.848,196.673 53.526,197.440 53.789 C 198.787 54.252,199.773 55.015,204.827 59.500 C 206.128 60.655,207.371 61.600,207.588 61.600 C 207.806 61.600,208.334 62.288,208.763 63.128 C 209.192 63.968,210.159 65.394,210.913 66.296 C 211.889 67.464,212.420 68.633,212.760 70.359 C 213.042 71.793,213.635 73.255,214.212 73.941 C 215.370 75.318,215.809 77.318,216.409 83.947 C 217.018 90.684,217.813 92.476,220.891 94.046 L 222.514 94.874 222.306 102.843 C 222.101 110.739,222.089 110.826,220.982 112.499 C 220.261 113.589,219.800 114.899,219.683 116.194 C 219.439 118.899,218.752 119.600,216.347 119.600 C 213.647 119.600,213.259 120.326,212.790 126.256 C 212.269 132.829,212.059 133.869,210.994 135.134 C 210.482 135.743,209.691 137.299,209.236 138.594 C 208.781 139.888,207.950 141.426,207.389 142.011 C 206.829 142.596,206.190 143.728,205.970 144.525 C 205.749 145.323,205.131 146.496,204.596 147.132 C 203.045 148.976,202.747 150.243,202.419 156.400 C 202.118 162.044,202.076 162.251,200.820 164.110 C 200.111 165.160,199.355 166.654,199.141 167.429 C 198.894 168.324,198.411 168.968,197.816 169.194 C 195.453 170.092,194.694 174.430,196.605 176.114 C 197.158 176.601,198.467 177.830,199.515 178.845 C 200.563 179.859,201.821 180.816,202.310 180.972 C 202.800 181.127,203.201 181.377,203.202 181.527 C 203.203 181.677,203.632 182.507,204.155 183.371 L 205.106 184.942 205.825 183.571 C 206.310 182.648,206.619 180.906,206.772 178.242 C 207.066 173.141,207.683 172.525,209.923 175.094 C 211.208 176.569,211.764 176.871,214.200 177.425 C 215.740 177.775,217.540 178.466,218.200 178.960 C 219.777 180.141,220.382 180.344,223.758 180.821 C 225.345 181.046,227.483 181.684,228.600 182.268 C 229.990 182.994,232.110 183.543,235.558 184.070 C 238.938 184.587,240.876 185.084,241.646 185.632 C 242.284 186.087,244.689 186.831,247.184 187.345 C 250.113 187.949,251.896 188.530,252.496 189.077 C 253.387 189.888,256.062 190.881,258.800 191.418 C 259.570 191.569,260.380 191.830,260.600 191.999 C 260.820 192.168,262.739 192.899,264.864 193.624 C 268.341 194.810,268.751 195.053,268.951 196.055 C 269.074 196.668,269.809 197.871,270.585 198.730 C 271.726 199.994,272.118 200.893,272.638 203.446 C 272.992 205.181,273.708 207.410,274.230 208.400 C 274.789 209.462,275.431 211.812,275.795 214.131 C 276.412 218.066,277.037 219.835,278.132 220.743 C 278.453 221.010,278.841 221.891,278.992 222.700 C 279.315 224.421,280.193 226.270,281.225 227.402 C 281.810 228.045,282.007 229.158,282.213 233.002 C 282.509 238.541,282.915 240.195,284.178 241.022 C 284.865 241.473,285.189 242.245,285.515 244.217 C 285.824 246.079,286.291 247.252,287.161 248.351 C 288.689 250.280,289.176 251.547,288.914 252.915 C 288.409 255.556,289.184 256.972,294.060 262.324 C 294.723 263.052,295.610 264.426,296.031 265.376 C 296.451 266.327,297.246 267.401,297.798 267.762 C 298.349 268.123,298.800 268.752,298.800 269.159 C 298.800 270.461,300.000 273.356,300.971 274.394 C 301.488 274.947,302.203 276.423,302.559 277.674 C 302.964 279.095,303.585 280.245,304.215 280.741 C 304.819 281.216,305.473 282.388,305.847 283.667 C 306.190 284.840,306.974 286.340,307.588 287.000 C 308.202 287.660,308.916 288.863,309.175 289.674 C 309.771 291.544,312.282 293.830,314.353 294.387 C 315.261 294.632,316.048 295.122,316.175 295.522 C 316.298 295.910,316.925 296.538,317.568 296.918 C 318.620 297.539,318.764 297.878,319.004 300.304 C 319.393 304.243,319.940 306.063,321.103 307.293 C 323.457 309.783,323.118 326.591,320.665 329.045 C 320.141 329.568,319.491 330.987,319.179 332.288 C 318.867 333.590,318.241 334.956,317.747 335.414 C 317.264 335.861,316.440 337.295,315.915 338.600 C 314.472 342.190,310.609 344.976,305.422 346.168 C 303.894 346.519,302.274 347.152,301.822 347.575 C 299.635 349.618,272.265 350.035,269.602 348.066 C 268.012 346.889,267.077 347.531,266.251 350.369 L 265.717 352.200 250.759 352.515 C 232.010 352.909,102.865 352.638,101.856 352.202 C 100.948 351.810,101.159 349.411,102.490 345.007 C 103.748 340.847,103.740 335.227,102.475 333.881 C 101.905 333.273,101.197 331.535,100.629 329.348 C 100.122 327.397,99.399 324.720,99.022 323.400 C 98.584 321.865,98.421 320.351,98.569 319.200 C 99.564 311.468,99.554 311.906,98.761 310.825 C 98.347 310.261,97.457 307.826,96.781 305.413 C 96.106 303.000,95.412 300.840,95.239 300.613 C 94.965 300.253,94.544 297.595,93.767 291.333 C 93.652 290.400,93.054 288.967,92.410 288.077 C 91.776 287.203,91.032 285.703,90.755 284.744 C 90.479 283.785,89.755 282.280,89.147 281.400 C 88.538 280.520,87.761 278.573,87.420 277.073 C 86.762 274.183,86.197 272.853,85.351 272.200 C 85.066 271.980,84.522 270.199,84.143 268.243 C 83.656 265.736,83.158 264.337,82.456 263.502 C 81.453 262.309,80.445 258.432,80.415 255.647 C 80.407 254.904,79.882 252.744,79.249 250.847 C 76.367 242.214,76.034 199.252,78.835 197.291 C 79.265 196.989,80.139 195.720,80.777 194.471 C 81.565 192.927,82.651 191.637,84.168 190.440 C 85.396 189.472,86.400 188.555,86.400 188.401 C 86.400 188.247,87.133 187.791,88.029 187.387 C 88.925 186.983,89.992 186.228,90.400 185.709 C 90.877 185.103,92.092 184.502,93.795 184.030 C 95.255 183.625,96.842 182.940,97.324 182.507 C 98.625 181.337,98.827 181.263,102.041 180.788 C 105.720 180.243,107.530 179.694,108.741 178.752 C 109.258 178.350,110.338 177.912,111.141 177.778 C 114.028 177.297,116.799 176.368,117.493 175.649 C 117.882 175.246,119.418 174.593,120.907 174.197 C 122.395 173.801,124.015 173.082,124.507 172.597 C 124.998 172.113,126.480 171.320,127.800 170.835 C 129.120 170.350,130.481 169.590,130.825 169.146 C 131.169 168.702,132.518 167.905,133.823 167.374 C 135.129 166.843,136.264 166.207,136.347 165.960 C 136.429 165.713,136.963 165.126,137.533 164.655 C 138.567 163.803,139.718 162.656,142.206 160.000 C 142.927 159.230,143.877 157.879,144.316 156.999 C 145.071 155.486,148.190 152.931,148.553 153.528 C 148.644 153.677,148.921 154.552,149.167 155.471 C 149.414 156.391,150.250 157.902,151.025 158.830 C 151.800 159.758,152.633 160.896,152.875 161.358 C 153.118 161.821,153.965 162.871,154.758 163.692 C 155.551 164.512,156.920 166.006,157.800 167.011 C 158.680 168.017,160.037 169.505,160.815 170.319 C 161.593 171.134,162.445 172.298,162.709 172.906 C 162.972 173.514,163.636 174.216,164.183 174.465 C 164.729 174.714,165.362 175.476,165.588 176.159 C 165.813 176.842,166.650 178.120,167.446 179.000 C 168.243 179.880,169.144 181.181,169.449 181.892 C 169.754 182.603,170.466 183.487,171.031 183.857 C 171.596 184.228,172.332 185.213,172.666 186.048 C 173.273 187.565,176.336 189.600,178.014 189.600 C 178.375 189.600,180.075 188.025,181.792 186.100 C 183.508 184.175,185.509 182.060,186.237 181.400 C 186.966 180.740,187.746 179.705,187.971 179.100 C 188.196 178.495,188.642 178.000,188.961 178.000 C 189.877 178.000,191.200 176.015,191.198 174.646 C 191.189 169.856,189.271 168.683,181.600 168.774 C 177.437 168.824,177.381 168.812,175.213 167.412 C 174.011 166.635,172.742 166.000,172.394 166.000 C 171.444 166.000,164.670 159.683,163.785 157.971 C 163.456 157.334,162.642 156.532,161.976 156.188 C 161.310 155.843,160.564 155.120,160.318 154.581 C 160.073 154.041,159.724 153.600,159.544 153.600 C 159.053 153.600,153.600 148.083,153.600 147.586 C 153.600 147.349,153.078 146.670,152.440 146.077 C 151.522 145.224,151.146 144.339,150.633 141.823 C 150.277 140.076,149.552 137.906,149.022 137.001 C 148.377 135.901,147.857 134.013,147.454 131.307 C 146.904 127.613,146.106 125.160,145.291 124.656 C 145.117 124.549,143.471 124.722,141.632 125.041 C 137.698 125.724,138.087 125.950,137.379 122.568 C 137.009 120.799,136.471 119.498,135.834 118.828 C 135.105 118.062,134.687 116.882,134.195 114.200 C 133.831 112.220,133.118 109.880,132.609 109.000 C 130.537 105.415,131.022 101.923,133.766 100.667 C 136.740 99.305,136.689 99.520,136.952 87.400 C 137.228 74.670,137.574 71.991,139.173 70.170 C 139.796 69.460,140.545 67.947,140.837 66.807 C 141.245 65.215,141.632 64.597,142.501 64.148 C 143.125 63.825,143.835 63.121,144.081 62.583 C 144.326 62.045,145.129 61.249,145.867 60.814 C 146.604 60.379,147.408 59.582,147.654 59.042 C 147.899 58.503,148.532 57.953,149.060 57.821 C 149.588 57.688,150.705 56.961,151.542 56.205 C 152.379 55.449,153.928 54.460,154.984 54.007 C 156.039 53.554,157.410 52.758,158.028 52.238 C 158.647 51.717,160.109 51.065,161.277 50.789 C 162.444 50.513,164.300 49.837,165.400 49.287 C 168.624 47.675,174.078 47.222,181.222 47.974 M207.841 194.700 C 207.143 196.993,207.618 200.400,208.637 200.400 C 209.700 200.400,209.974 198.690,209.299 196.266 C 208.652 193.939,208.215 193.471,207.841 194.700 M184.371 197.835 C 183.943 198.351,183.949 198.521,184.407 198.804 C 185.077 199.218,185.600 198.953,185.600 198.200 C 185.600 197.339,184.945 197.144,184.371 197.835 M216.480 289.680 C 215.627 290.533,215.965 292.527,217.346 294.792 C 218.592 296.837,218.710 297.325,218.940 301.400 C 219.414 309.776,224.787 309.717,224.798 301.335 C 224.808 294.059,219.516 286.644,216.480 289.680 M219.522 292.130 C 219.866 292.835,220.362 293.200,220.976 293.200 C 223.787 293.200,224.905 303.533,222.345 305.850 C 220.928 307.132,219.985 305.599,219.964 301.980 C 219.935 296.887,219.415 294.252,218.203 293.039 C 217.321 292.158,217.218 291.860,217.625 291.370 C 218.280 290.581,218.885 290.823,219.522 292.130 " stroke="none" fill="#696c6c" fill-rule="evenodd"></path></g></svg>